<?xml version="1.0" encoding="utf-8"?>
<!-- Generator: Adobe Illustrator 19.2.1, SVG Export Plug-In . SVG Version: 6.00 Build 0)  -->
<svg version="1.1" id="Layer_1" xmlns="http://www.w3.org/2000/svg" xmlns:xlink="http://www.w3.org/1999/xlink" x="0px" y="0px"
	 viewBox="0 0 200 120" style="enable-background:new 0 0 200 120;" xml:space="preserve">
<style type="text/css">
	.st0{fill:none;stroke:#2E2E2E;stroke-width:2;stroke-linecap:round;stroke-linejoin:round;stroke-miterlimit:10;}
</style>
<g id="XMLID_90_">
	<g id="XMLID_140_">
		<path id="XMLID_163_" class="st0" d="M119.8,59.5l-1.8,1.8l-6.7-4c-1.6,1-3.3,1.7-5.1,2.1l-1.9,7.6h-4.7l-1.9-7.6
			c-1.8-0.4-3.6-1.2-5.1-2.1l-6.8,4L82.5,58l4-6.7c-1-1.6-1.7-3.3-2.1-5.1l-7.6-1.9v-4.7l5.5-1.4c-1.6-2.6-3.5-5.1-5.7-7.2
			c-8.9-8.6-22.4-13.2-37.1-7.1C28,28.5,19.9,41.6,19.9,53.1c0,1.3,0.1,2.7,0.2,4c-8.4,2.1-17.9,8.3-17.9,22.2c0,0.6,0,1.1,0,1.6
			C3,93,13.8,102.2,26.3,102.2c0,0,62.4,0,81.7,0c9.2,0,24.3-3.9,24.3-22.8C132.3,68.3,126.2,62.5,119.8,59.5z"/>
		<path id="XMLID_159_" class="st0" d="M127,44.2v-4.7l-7.6-1.9c-0.4-1.8-1.2-3.6-2.1-5.2l4-6.7l-1.1-1.1l-1.1-1.1l-1.1-1.1l-6.7,4
			c-1.6-1-3.3-1.7-5.2-2.1l-1.9-7.6h-4.7l-1.9,7.6c-1.9,0.5-3.6,1.2-5.2,2.1l-6.7-4l-1.1,1.1l-1.1,1.1l-1.1,1.1l4,6.7
			c-1,1.6-1.7,3.3-2.1,5.2l-2.1,0.5l-5.5,1.4v4.7l7.6,1.9c0.5,1.8,1.2,3.6,2.1,5.1l-4,6.7l3.3,3.3l6.8-4c1.6,1,3.3,1.7,5.1,2.1
			l1.9,7.6h4.7l1.9-7.6c1.8-0.4,3.6-1.2,5.1-2.1l6.7,4l1.8-1.8l0.4-0.4l1.1-1.1l-4-6.7c1-1.6,1.7-3.3,2.1-5.1L127,44.2z M109.1,48.1
			c-1.8,2-4.4,3.3-7.3,3.3c-5.3,0-9.6-4.3-9.6-9.6c0-0.4,0-0.9,0.1-1.3c0.6-4.7,4.6-8.3,9.5-8.3c5.3,0,9.6,4.3,9.6,9.6
			C111.5,44.2,110.6,46.4,109.1,48.1z"/>
		<path id="XMLID_158_" class="st0" d="M111.5,41.8c0,2.4-0.9,4.6-2.3,6.3c-1.8,2-4.4,3.3-7.3,3.3c-5.3,0-9.6-4.3-9.6-9.6
			c0-0.4,0-0.9,0.1-1.3c0.6-4.7,4.6-8.3,9.5-8.3C107.2,32.2,111.5,36.5,111.5,41.8z"/>
	</g>
	<g id="XMLID_132_">
		<polygon id="XMLID_139_" class="st0" points="21.5,92.3 21.5,65.6 34,65.6 40.2,71.8 40.2,92.3 		"/>
		<polygon id="XMLID_138_" class="st0" points="34,71.8 40.2,71.8 34,65.6 		"/>
		<line id="XMLID_137_" class="st0" x1="25.4" y1="76.8" x2="36.3" y2="76.8"/>
		<line id="XMLID_136_" class="st0" x1="25.4" y1="80.5" x2="36.3" y2="80.5"/>
		<line id="XMLID_135_" class="st0" x1="25.4" y1="84.1" x2="36.3" y2="84.1"/>
		<line id="XMLID_134_" class="st0" x1="25.4" y1="87.8" x2="36.3" y2="87.8"/>
		<line id="XMLID_133_" class="st0" x1="25.4" y1="73.2" x2="30.6" y2="73.2"/>
	</g>
	<g id="XMLID_111_">
		<polygon id="XMLID_131_" class="st0" points="56.7,94.7 56.7,67.9 69.1,67.9 75.4,74.2 75.4,94.7 		"/>
		<polygon id="XMLID_130_" class="st0" points="69.1,74.2 75.4,74.2 69.1,67.9 		"/>
		<line id="XMLID_129_" class="st0" x1="60.6" y1="79.2" x2="71.5" y2="79.2"/>
		<line id="XMLID_128_" class="st0" x1="60.6" y1="82.8" x2="71.5" y2="82.8"/>
		<line id="XMLID_115_" class="st0" x1="60.6" y1="86.5" x2="71.5" y2="86.5"/>
		<line id="XMLID_113_" class="st0" x1="60.6" y1="90.1" x2="71.5" y2="90.1"/>
		<line id="XMLID_112_" class="st0" x1="60.6" y1="75.5" x2="65.8" y2="75.5"/>
	</g>
	<g id="XMLID_91_">
		<polygon id="XMLID_110_" class="st0" points="42.5,58 42.5,31.2 55,31.2 61.2,37.4 61.2,58 		"/>
		<polygon id="XMLID_109_" class="st0" points="55,37.4 61.2,37.4 55,31.2 		"/>
		<line id="XMLID_107_" class="st0" x1="46.4" y1="42.5" x2="57.3" y2="42.5"/>
		<line id="XMLID_106_" class="st0" x1="46.4" y1="46.1" x2="57.3" y2="46.1"/>
		<line id="XMLID_100_" class="st0" x1="46.4" y1="49.7" x2="57.3" y2="49.7"/>
		<line id="XMLID_93_" class="st0" x1="46.4" y1="53.4" x2="57.3" y2="53.4"/>
		<line id="XMLID_92_" class="st0" x1="46.4" y1="38.8" x2="51.6" y2="38.8"/>
	</g>
</g>
</svg>
